name C:\Users\antoi\Documents\MyRepositories\upper-imu-dc\Results\main_tracking\Case_94\kinematics.mot
datacolumns 43
datarows 6
range 3.00000000 3.10000000
endheader 
time	clav_prot	clav_elev	scapula_abduction	scapula_elevation	scapula_upward_rot	scapula_winging	plane_elv	shoulder_elv	axial_rot	TrapeziusScapula_M/activation	TrapeziusScapula_S/activation	TrapeziusScapula_I/activation	TrapeziusClavicle_S/activation	SerratusAnterior_I/activation	SerratusAnterior_M/activation	SerratusAnterior_S/activation	Rhomboideus_S/activation	Rhomboideus_I/activation	LevatorScapulae/activation	Coracobrachialis/activation	DeltoideusClavicle_A/activation	DeltoideusScapula_P/activation	DeltoideusScapula_M/activation	LatissimusDorsi_S/activation	LatissimusDorsi_M/activation	LatissimusDorsi_I/activation	PectoralisMajorClavicle_S/activation	PectoralisMajorThorax_I/activation	PectoralisMajorThorax_M/activation	TeresMajor/activation	Infraspinatus_I/activation	Infraspinatus_S/activation	PectoralisMinor/activation	TeresMinor/activation	Subscapularis_S/activation	Subscapularis_M/activation	Subscapularis_I/activation	Supraspinatus_P/activation	Supraspinatus_A/activation	TRIlong/activation	BIC_long/activation	BIC_brevis/activation	
          3.00000000	        -23.94926821	         -6.78576867	        -11.84137365	         -5.78699955	         12.29483300	          6.46363143	        -30.83129015	         14.22463399	         52.60539661	          0.01000000	          0.01000000	          0.01000000	          0.01147284	          0.01333332	          0.02362652	          0.03005207	          0.01000000	          0.01000000	          0.02155357	          0.01333332	          0.01000000	          0.04227615	          0.01000000	          0.01000000	          0.01000000	          0.01000000	          0.01333253	          0.03534339	          0.02731849	          0.08538533	          0.01000000	          0.01000000	          0.01017033	          0.01000000	          0.04732930	          0.04537857	          0.07073926	          0.01000000	          0.01000000	          0.09231694	          0.01000000	          0.01333332	
          3.02000000	        -22.41604377	         -6.82149253	        -12.41017644	         -5.60205599	         11.62988424	          6.61851489	        -29.02484089	         14.55998166	         50.85674756	          0.01000000	          0.01000000	          0.01000000	          0.01000000	          0.01000000	          0.01771989	          0.02253906	          0.01792109	          0.06328771	          0.03559249	          0.01000000	          0.01000000	          0.08519066	          0.01000001	          0.01646386	          0.01835923	          0.01153795	          0.01000000	          0.03549281	          0.02048887	          0.10349936	          0.01000000	          0.01000000	          0.04543535	          0.01000000	          0.04234774	          0.04562313	          0.07597106	          0.01000000	          0.01000000	          0.12485978	          0.01000000	          0.01000000	
          3.04000000	        -22.52225124	         -6.80639165	        -12.92524007	         -5.44098688	         11.04347428	          6.75660411	        -27.30635299	         14.93722131	         49.07854169	          0.01000000	          0.01000000	          0.01000000	          0.01000000	          0.01000000	          0.01328992	          0.02301654	          0.01734204	          0.06279585	          0.04228321	          0.01000000	          0.01000000	          0.09266861	          0.01026622	          0.01447739	          0.01659853	          0.01166298	          0.01000000	          0.03578961	          0.01536665	          0.09610192	          0.01000000	          0.01000000	          0.04521947	          0.01000000	          0.03931586	          0.04519095	          0.07623851	          0.01000000	          0.01000000	          0.11783143	          0.01000000	          0.01000000	
          3.06000000	        -22.61071905	         -6.78857836	        -13.37598368	         -5.29028105	         10.51266753	          6.87953378	        -25.69259018	         15.35749412	         47.28011240	          0.01000000	          0.01000000	          0.01000000	          0.01000000	          0.01000000	          0.01000000	          0.02391227	          0.01699230	          0.06285360	          0.04510571	          0.01000000	          0.01000000	          0.09516428	          0.01398657	          0.01334444	          0.01547737	          0.01164381	          0.01000000	          0.03444436	          0.01369847	          0.09104143	          0.01000000	          0.01000000	          0.04348253	          0.01000000	          0.03595951	          0.04321228	          0.07342772	          0.01000000	          0.01000000	          0.11426096	          0.01000000	          0.01000000	
          3.08000000	        -22.67537809	         -6.76567493	        -13.75085153	         -5.14934656	         10.04212907	          6.98512022	        -24.20181509	         15.82289877	         45.47260003	          0.01000000	          0.01000000	          0.01000000	          0.01000000	          0.01000000	          0.01000000	          0.02262179	          0.01766328	          0.06645305	          0.04492539	          0.01000000	          0.01000000	          0.09639772	          0.01848910	          0.01396794	          0.01601501	          0.01174204	          0.01000000	          0.03275807	          0.01159959	          0.08669844	          0.01000000	          0.01000000	          0.04396797	          0.01000000	          0.03249177	          0.04072504	          0.06972055	          0.01000000	          0.01000000	          0.11179875	          0.01000000	          0.01000000	
          3.10000000	        -22.71624382	         -6.73513455	        -14.04848493	         -5.01798113	          9.63714051	          7.07130438	        -22.84267479	         16.33357449	         43.66986539	          0.01000000	          0.01000000	          0.01000000	          0.01000000	          0.01000000	          0.01000000	          0.02163607	          0.01818793	          0.06963952	          0.04491842	          0.01000000	          0.01000000	          0.09750907	          0.02336702	          0.01436490	          0.01636576	          0.01178434	          0.01000000	          0.03101538	          0.01047865	          0.08302615	          0.01000000	          0.01000000	          0.04413311	          0.01000000	          0.02879492	          0.03782172	          0.06546302	          0.01000000	          0.01000000	          0.11040298	          0.01000000	          0.01000000	
